<svg width="40" height="40" viewBox="0 0 40 40" fill="none" xmlns="http://www.w3.org/2000/svg">
  <!-- 골프공 그림자 효과 -->
  <circle cx="20" cy="21" r="18" fill="#E5E5E5"/>
  
  <!-- 골프공 기본 원형 -->
  <circle cx="20" cy="20" r="18" fill="white" stroke="#D1D5DB" stroke-width="1"/>
  
  <!-- 골프공 딤플 패턴 -->
  <circle cx="14" cy="13" r="1.2" fill="#E5E5E5"/>
  <circle cx="20" cy="11" r="1.2" fill="#E5E5E5"/>
  <circle cx="26" cy="13" r="1.2" fill="#E5E5E5"/>
  <circle cx="11" cy="19" r="1.2" fill="#E5E5E5"/>
  <circle cx="16" cy="16" r="1.2" fill="#E5E5E5"/>
  <circle cx="22" cy="16" r="1.2" fill="#E5E5E5"/>
  <circle cx="28" cy="19" r="1.2" fill="#E5E5E5"/>
  <circle cx="14" cy="23" r="1.2" fill="#E5E5E5"/>
  <circle cx="20" cy="20" r="1.2" fill="#E5E5E5"/>
  <circle cx="26" cy="23" r="1.2" fill="#E5E5E5"/>
  <circle cx="12" cy="28" r="1.2" fill="#E5E5E5"/>
  <circle cx="18" cy="26" r="1.2" fill="#E5E5E5"/>
  <circle cx="24" cy="28" r="1.2" fill="#E5E5E5"/>
  <circle cx="29" cy="26" r="1.2" fill="#E5E5E5"/>
  <circle cx="30" cy="20" r="1.2" fill="#E5E5E5"/>
  <circle cx="10" cy="14" r="1.2" fill="#E5E5E5"/>
  
  <!-- 골프 티 -->
  <rect x="19" y="36" width="2" height="4" rx="1" fill="#16A34A"/>
  
  <!-- 그린 컬러 강조 (로고 브랜드 색상) -->
  <path d="M8.5 25C9.5 29 14 34 20 34C26 34 30.5 29 31.5 25" stroke="#16A34A" stroke-width="1.5" stroke-linecap="round"/>
  
  <!-- 골프공 표면 광택 효과 -->
  <path d="M12 11C14 9 17 8 20 8C23 8 26 9 28 11" stroke="white" stroke-width="2" stroke-linecap="round"/>
</svg> 