<svg width="40" height="40" viewBox="0 0 40 40" fill="none" xmlns="http://www.w3.org/2000/svg">
  <!-- 골프공 기본 원형 -->
  <circle cx="20" cy="20" r="19" fill="white" stroke="#E5E5E5" stroke-width="1"/>
  
  <!-- 골프공 딤플 패턴 -->
  <circle cx="14" cy="13" r="1.5" fill="#E5E5E5"/>
  <circle cx="20" cy="11" r="1.5" fill="#E5E5E5"/>
  <circle cx="26" cy="13" r="1.5" fill="#E5E5E5"/>
  <circle cx="10" cy="20" r="1.5" fill="#E5E5E5"/>
  <circle cx="16" cy="18" r="1.5" fill="#E5E5E5"/>
  <circle cx="22" cy="16" r="1.5" fill="#E5E5E5"/>
  <circle cx="28" cy="18" r="1.5" fill="#E5E5E5"/>
  <circle cx="14" cy="24" r="1.5" fill="#E5E5E5"/>
  <circle cx="20" cy="22" r="1.5" fill="#E5E5E5"/>
  <circle cx="26" cy="24" r="1.5" fill="#E5E5E5"/>
  <circle cx="12" cy="29" r="1.5" fill="#E5E5E5"/>
  <circle cx="18" cy="27" r="1.5" fill="#E5E5E5"/>
  <circle cx="24" cy="29" r="1.5" fill="#E5E5E5"/>
  <circle cx="30" cy="26" r="1.5" fill="#E5E5E5"/>
  <circle cx="30" cy="20" r="1.5" fill="#E5E5E5"/>
  <circle cx="10" cy="14" r="1.5" fill="#E5E5E5"/>
  
  <!-- 골프 티 -->
  <rect x="19" y="36" width="2" height="4" rx="1" fill="#16A34A"/>
  
  <!-- 그린 컬러 강조 (로고 브랜드 색상) -->
  <path d="M5.5 20C5.5 12 12 5.5 20 5.5C28 5.5 34.5 12 34.5 20" stroke="#16A34A" stroke-width="2" stroke-linecap="round"/>
</svg> 